<svg width="40" height="40" viewBox="0 0 40 40" fill="none" xmlns="http://www.w3.org/2000/svg">
<path d="M21.006 21.9954H4.96539C4.6418 21.9954 4.37946 22.2576 4.37946 22.5813C4.37946 22.905 4.6418 23.1673 4.96539 23.1673H21.0059C21.3296 23.1673 21.5919 22.9049 21.5919 22.5813C21.592 22.2576 21.3296 21.9954 21.006 21.9954Z" fill="white"/>
<path d="M21.006 25.693H4.96539C4.6418 25.693 4.37946 25.9553 4.37946 26.279C4.37946 26.6026 4.6418 26.8649 4.96539 26.8649H21.0059C21.3296 26.8649 21.5919 26.6026 21.5919 26.279C21.592 25.9553 21.3296 25.693 21.006 25.693Z" fill="white"/>
<path d="M12.9857 29.3907H4.96539C4.6418 29.3907 4.37946 29.653 4.37946 29.9766C4.37946 30.3003 4.6418 30.5626 4.96539 30.5626H12.9857C13.3093 30.5626 13.5716 30.3003 13.5716 29.9766C13.5716 29.653 13.3093 29.3907 12.9857 29.3907Z" fill="white"/>
<path d="M36.4214 14.6H20.3808C20.0572 14.6 19.7949 14.8623 19.7949 15.1859C19.7949 15.5096 20.0572 15.7719 20.3808 15.7719H36.4214C36.7451 15.7719 37.0074 15.5096 37.0074 15.1859C37.0074 14.8623 36.7451 14.6 36.4214 14.6Z" fill="white"/>
<path d="M36.4214 18.2977H28.4011C28.0774 18.2977 27.8151 18.5599 27.8151 18.8836C27.8151 19.2073 28.0774 19.4695 28.4011 19.4695H36.4214C36.745 19.4695 37.0073 19.2073 37.0073 18.8836C37.0073 18.5599 36.745 18.2977 36.4214 18.2977Z" fill="white"/>
<path d="M3.62775 4.47414H15.3467C15.6703 4.47414 15.9327 4.21187 15.9327 3.8882C15.9327 3.56453 15.6703 3.30226 15.3467 3.30226H3.62775C3.30415 3.30226 3.04181 3.56453 3.04181 3.8882C3.04181 4.21187 3.30415 4.47414 3.62775 4.47414Z" fill="white"/>
<path d="M3.62775 7.40367H9.4872C9.81079 7.40367 10.0731 7.14141 10.0731 6.81773C10.0731 6.49406 9.81079 6.2318 9.4872 6.2318H3.62775C3.30415 6.2318 3.04181 6.49406 3.04181 6.81773C3.04181 7.14141 3.30415 7.40367 3.62775 7.40367Z" fill="white"/>
<path d="M22.1895 17.6269H3.7818C1.69656 17.6269 0 19.3234 0 21.4087V30.9163C0 33.0016 1.69648 34.6981 3.7818 34.6981H3.91391L3.15664 38.9027C3.08508 39.3001 3.27578 39.6961 3.63117 39.8878C3.99094 40.0819 4.42586 40.0181 4.715 39.7435L9.89992 34.8217C9.9839 34.7419 10.0938 34.6981 10.2096 34.6981H22.1894C24.2748 34.6981 25.9712 33.0016 25.9712 30.9163V21.4087C25.9714 19.3234 24.2748 17.6269 22.1895 17.6269ZM24.7994 30.9163C24.7994 32.3554 23.6286 33.5262 22.1895 33.5262H10.2097C9.79234 33.5262 9.39586 33.6844 9.09312 33.9718L4.43992 38.3888L5.09742 34.7383C5.21125 34.1063 4.72523 33.5262 4.08414 33.5262H3.7818C2.34273 33.5262 1.17195 32.3553 1.17195 30.9162V21.4087C1.17195 19.9696 2.34273 18.7987 3.7818 18.7987H22.1895C23.6286 18.7987 24.7994 19.9696 24.7994 21.4087V30.9163Z" fill="white"/>
<path d="M2.29849 10.4227H6.6688C6.67779 10.4227 6.68615 10.4275 6.6906 10.4352L8.55724 13.6578C8.75162 13.9935 9.09935 14.1939 9.48724 14.1939C9.87521 14.1939 10.2229 13.9935 10.4173 13.6578L12.2839 10.4352C12.2884 10.4274 12.2968 10.4227 12.3058 10.4227H16.676C17.9268 10.4227 18.9443 9.40508 18.9443 8.15429V2.26828C18.9442 1.01758 17.9267 0 16.6759 0H2.29849C1.04779 0 0.0302124 1.01758 0.0302124 2.26828V2.51586C0.0302124 2.83953 0.292556 3.1018 0.61615 3.1018C0.939744 3.1018 1.20209 2.83953 1.20209 2.51586V2.26828C1.20217 1.66367 1.69396 1.17187 2.29849 1.17187H16.6759C17.2804 1.17187 17.7723 1.66367 17.7723 2.2682V8.15422C17.7723 8.75875 17.2804 9.25062 16.6759 9.25062H12.3057C11.8801 9.25062 11.4831 9.47945 11.2697 9.84773L9.48716 12.9252L7.70466 9.84773C7.4913 9.47945 7.09443 9.25062 6.66873 9.25062H2.29841C1.69388 9.25062 1.20209 8.75875 1.20209 8.15422V5.25492C1.20209 4.93125 0.939744 4.66898 0.61615 4.66898C0.292556 4.66898 0.0302124 4.93125 0.0302124 5.25492V8.15429C0.0302124 9.40508 1.04779 10.4227 2.29849 10.4227Z" fill="white"/>
<path d="M36.5738 10.9964H20.2283C18.3404 10.9964 16.8045 12.5323 16.8045 14.4202V15.4737C16.8045 15.7974 17.0668 16.0597 17.3904 16.0597C17.714 16.0597 17.9764 15.7974 17.9764 15.4737V14.4202C17.9764 13.1784 18.9865 12.1683 20.2282 12.1683H36.5738C37.8155 12.1683 38.8257 13.1784 38.8257 14.4202V22.7521C38.8257 23.9938 37.8155 25.004 36.5738 25.004H36.3053C35.694 25.004 35.2328 25.557 35.3409 26.1575L35.8892 29.202L31.9027 25.4177C31.6218 25.1509 31.2536 25.004 30.866 25.004H28.1245C27.8008 25.004 27.5386 25.2662 27.5386 25.5899C27.5386 25.9136 27.8008 26.1759 28.1245 26.1759H30.866C30.9519 26.1759 31.0336 26.2084 31.0958 26.2676L35.6998 30.638C35.9798 30.9037 36.3974 30.9606 36.7387 30.7762C37.0793 30.5924 37.262 30.213 37.1933 29.8322L36.5349 26.1759H36.5737C38.4616 26.1759 39.9975 24.64 39.9975 22.7522V14.4202C39.9975 12.5323 38.4617 10.9964 36.5738 10.9964Z" fill="white"/>
</svg>
