<svg width="40" height="40" viewBox="0 0 40 40" fill="none" xmlns="http://www.w3.org/2000/svg">
<path d="M36.6038 23.9511C36.2804 23.1512 35.3696 22.7646 34.5696 23.0882C33.7695 23.4116 33.3831 24.3223 33.7066 25.1224L35.5468 29.6744L30.0813 27.2651C29.6857 27.0907 29.2355 27.088 28.8378 27.2577C26.97 28.0546 24.9691 28.4587 22.8906 28.4587C14.5256 28.4587 8.90629 21.9091 8.90629 15.7918C8.90629 8.80733 15.1796 3.12499 22.8906 3.12499C30.6016 3.12499 36.875 8.80733 36.875 15.7918C36.875 16.3368 36.8242 16.9893 36.7358 17.5819C36.6085 18.4354 37.1972 19.2305 38.0507 19.3579C38.9043 19.4855 39.6994 18.8965 39.8266 18.043C39.9384 17.2938 40 16.4943 40 15.7918C40 11.5473 38.2026 7.56467 34.9388 4.57757C31.7137 1.6257 27.4348 0 22.8906 0C18.3464 0 14.0677 1.6257 10.8425 4.57749C7.9259 7.24686 6.18152 10.7115 5.84317 14.4474C2.17466 16.8768 5.20945e-05 20.7696 5.20945e-05 24.9628C5.20945e-05 27.5822 0.825285 30.0675 2.39614 32.2063L0.113958 37.8518C-0.124401 38.4413 0.0183333 39.1166 0.474973 39.5592C0.772551 39.8478 1.16466 40 1.56286 40C1.7756 39.9999 1.99013 39.9566 2.19278 39.8672L8.77316 36.9664C10.4285 37.5826 12.1782 37.8945 13.9843 37.8945C14.0234 37.8945 14.0617 37.8915 14.1001 37.8887C16.7124 37.8689 19.252 37.1818 21.4515 35.8959C23.4216 34.7441 25.0423 33.1617 26.1784 31.2931C27.2877 31.0938 28.372 30.7929 29.4243 30.3906L37.8072 34.0859C38.0099 34.1752 38.2244 34.2188 38.4371 34.2188C38.8353 34.2187 39.2275 34.0665 39.5251 33.778C39.9817 33.3353 40.1244 32.6602 39.8861 32.0706L36.6038 23.9511ZM13.9845 34.7656C13.9632 34.7656 13.9424 34.7679 13.9212 34.7688C12.3257 34.7606 10.7901 34.447 9.35597 33.8352C8.95839 33.6654 8.50816 33.6681 8.11254 33.8426L4.4534 35.4556L5.63379 32.5356C5.85199 31.9959 5.75192 31.3795 5.37426 30.9364C3.90278 29.2101 3.12505 27.1446 3.12505 24.9628C3.12505 22.4659 4.17543 20.1 6.01324 18.3061C6.58543 21.4253 8.19988 24.409 10.6353 26.7529C13.6658 29.6696 17.6744 31.3592 22.0029 31.5627C19.9707 33.5631 17.0626 34.7656 13.9845 34.7656Z" fill="white"/>
<path d="M22.8125 17.4218C23.6754 17.4218 24.375 16.7223 24.375 15.8593C24.375 14.9964 23.6754 14.2968 22.8125 14.2968C21.9496 14.2968 21.25 14.9964 21.25 15.8593C21.25 16.7223 21.9496 17.4218 22.8125 17.4218Z" fill="white"/>
<path d="M29.0625 17.4218C29.9254 17.4218 30.625 16.7223 30.625 15.8593C30.625 14.9964 29.9254 14.2968 29.0625 14.2968C28.1996 14.2968 27.5 14.9964 27.5 15.8593C27.5 16.7223 28.1996 17.4218 29.0625 17.4218Z" fill="white"/>
<path d="M16.5625 17.4218C17.4254 17.4218 18.125 16.7223 18.125 15.8593C18.125 14.9964 17.4254 14.2968 16.5625 14.2968C15.6996 14.2968 15 14.9964 15 15.8593C15 16.7223 15.6996 17.4218 16.5625 17.4218Z" fill="white"/>
</svg>
