<svg width="20" height="20" viewBox="0 0 20 20" fill="none" xmlns="http://www.w3.org/2000/svg">
<path d="M17.1129 10.6766H15.5662C15.7238 11.1082 15.81 11.574 15.81 12.0595V17.9053C15.81 18.1077 15.7747 18.302 15.7106 18.4827H18.2677C19.2229 18.4827 19.9999 17.7056 19.9999 16.7504V13.5637C20 11.9717 18.7048 10.6766 17.1129 10.6766Z" fill="black"/>
<path d="M4.19005 12.0596C4.19005 11.574 4.27618 11.1083 4.43384 10.6766H2.88712C1.29516 10.6766 0 11.9718 0 13.5637V16.7505C0 17.7057 0.777072 18.4828 1.73227 18.4828H4.28938C4.22528 18.302 4.19005 18.1077 4.19005 17.9053V12.0596V12.0596Z" fill="black"/>
<path d="M11.768 9.17247H8.23196C6.64001 9.17247 5.34485 10.4676 5.34485 12.0596V17.9053C5.34485 18.2242 5.60336 18.4827 5.92227 18.4827H14.0777C14.3966 18.4827 14.6551 18.2242 14.6551 17.9053V12.0596C14.6551 10.4676 13.3599 9.17247 11.768 9.17247Z" fill="black"/>
<path d="M10.0001 1.51718C8.08553 1.51718 6.52795 3.07476 6.52795 4.98934C6.52795 6.28797 7.24471 7.42215 8.30323 8.01762C8.8053 8.30005 9.38413 8.46145 10.0001 8.46145C10.616 8.46145 11.1948 8.30005 11.6969 8.01762C12.7555 7.42215 13.4722 6.28793 13.4722 4.98934C13.4722 3.0748 11.9146 1.51718 10.0001 1.51718Z" fill="black"/>
<path d="M3.90308 4.75349C2.47124 4.75349 1.3064 5.91834 1.3064 7.35018C1.3064 8.78202 2.47124 9.94687 3.90308 9.94687C4.26628 9.94687 4.61214 9.87163 4.92633 9.7364C5.46953 9.50253 5.91742 9.08855 6.19457 8.56999C6.3891 8.20604 6.49977 7.79085 6.49977 7.35018C6.49977 5.91838 5.33492 4.75349 3.90308 4.75349Z" fill="black"/>
<path d="M16.0971 4.75349C14.6652 4.75349 13.5004 5.91834 13.5004 7.35018C13.5004 7.79089 13.611 8.20608 13.8056 8.56999C14.0827 9.08858 14.5306 9.50257 15.0738 9.7364C15.388 9.87163 15.7338 9.94687 16.0971 9.94687C17.5289 9.94687 18.6937 8.78202 18.6937 7.35018C18.6937 5.91834 17.5289 4.75349 16.0971 4.75349Z" fill="black"/>
</svg>
