<svg width="40" height="40" viewBox="0 0 40 40" fill="none" xmlns="http://www.w3.org/2000/svg">
<path d="M34.2258 21.3532H31.1324C31.4477 22.2164 31.62 23.1481 31.62 24.1191V35.8105C31.62 36.2154 31.5495 36.604 31.4213 36.9654H36.5354C38.4458 36.9654 40 35.4112 40 33.5008V27.1273C40 23.9435 37.4097 21.3532 34.2258 21.3532Z" fill="white"/>
<path d="M8.38009 24.1192C8.38009 23.1481 8.55236 22.2165 8.86767 21.3532H5.77423C2.59032 21.3532 0 23.9436 0 27.1275V33.501C0 35.4113 1.55414 36.9655 3.46454 36.9655H8.57877C8.45056 36.604 8.38009 36.2155 8.38009 35.8106V24.1192Z" fill="white"/>
<path d="M23.5361 18.345H16.464C13.2801 18.345 10.6898 20.9353 10.6898 24.1192V35.8106C10.6898 36.4483 11.2069 36.9655 11.8447 36.9655H28.1555C28.7933 36.9655 29.3103 36.4484 29.3103 35.8106V24.1192C29.3103 20.9353 26.72 18.345 23.5361 18.345Z" fill="white"/>
<path d="M20 3.03439C16.1709 3.03439 13.0558 6.14955 13.0558 9.9787C13.0558 12.576 14.4893 14.8443 16.6063 16.0353C17.6105 16.6001 18.7681 16.9229 20 16.9229C21.2319 16.9229 22.3895 16.6001 23.3937 16.0353C25.5108 14.8443 26.9442 12.5759 26.9442 9.9787C26.9442 6.14963 23.8291 3.03439 20 3.03439Z" fill="white"/>
<path d="M7.8061 9.50697C4.94242 9.50697 2.61273 11.8367 2.61273 14.7003C2.61273 17.564 4.94242 19.8937 7.8061 19.8937C8.53251 19.8937 9.22423 19.7433 9.85259 19.4728C10.939 19.005 11.8348 18.1771 12.3891 17.14C12.7781 16.4121 12.9995 15.5817 12.9995 14.7003C12.9995 11.8367 10.6698 9.50697 7.8061 9.50697Z" fill="white"/>
<path d="M32.194 9.50697C29.3304 9.50697 27.0007 11.8367 27.0007 14.7003C27.0007 15.5818 27.222 16.4121 27.6111 17.14C28.1654 18.1772 29.0611 19.0051 30.1476 19.4728C30.7759 19.7433 31.4676 19.8937 32.194 19.8937C35.0577 19.8937 37.3874 17.564 37.3874 14.7003C37.3874 11.8367 35.0577 9.50697 32.194 9.50697Z" fill="white"/>
</svg>
